<mxfile host="app.diagrams.net" agent="Mozilla/5.0 (Windows NT 10.0; Win64; x64) AppleWebKit/537.36 (KHTML, like Gecko) Chrome/132.0.0.0 Safari/537.36 Edg/132.0.0.0" version="26.0.8">
  <diagram id="C5RBs43oDa-KdzZeNtuy" name="Page-1">
    <mxGraphModel dx="664" dy="893" grid="1" gridSize="10" guides="1" tooltips="1" connect="1" arrows="1" fold="1" page="1" pageScale="1" pageWidth="827" pageHeight="1169" math="0" shadow="0">
      <root>
        <mxCell id="WIyWlLk6GJQsqaUBKTNV-0" />
        <mxCell id="WIyWlLk6GJQsqaUBKTNV-1" parent="WIyWlLk6GJQsqaUBKTNV-0" />
        <mxCell id="5KUY4B4cqEjA8n7XS62a-2" value="" style="edgeStyle=orthogonalEdgeStyle;rounded=0;orthogonalLoop=1;jettySize=auto;html=1;" edge="1" parent="WIyWlLk6GJQsqaUBKTNV-1" source="5KUY4B4cqEjA8n7XS62a-0" target="5KUY4B4cqEjA8n7XS62a-1">
          <mxGeometry relative="1" as="geometry" />
        </mxCell>
        <mxCell id="5KUY4B4cqEjA8n7XS62a-0" value="&lt;div&gt;HilbertA&lt;/div&gt;Начало" style="strokeWidth=2;html=1;shape=mxgraph.flowchart.terminator;whiteSpace=wrap;" vertex="1" parent="WIyWlLk6GJQsqaUBKTNV-1">
          <mxGeometry x="120" y="40" width="240" height="80" as="geometry" />
        </mxCell>
        <mxCell id="5KUY4B4cqEjA8n7XS62a-8" value="" style="edgeStyle=orthogonalEdgeStyle;rounded=0;orthogonalLoop=1;jettySize=auto;html=1;" edge="1" parent="WIyWlLk6GJQsqaUBKTNV-1" source="5KUY4B4cqEjA8n7XS62a-1" target="5KUY4B4cqEjA8n7XS62a-7">
          <mxGeometry relative="1" as="geometry" />
        </mxCell>
        <mxCell id="5KUY4B4cqEjA8n7XS62a-1" value="Depth, Points, Index, X, Y, Xi, Xj, Yi, Yj" style="shape=parallelogram;perimeter=parallelogramPerimeter;whiteSpace=wrap;html=1;fixedSize=1;" vertex="1" parent="WIyWlLk6GJQsqaUBKTNV-1">
          <mxGeometry x="120" y="160" width="240" height="80" as="geometry" />
        </mxCell>
        <mxCell id="5KUY4B4cqEjA8n7XS62a-4" value="" style="strokeWidth=2;html=1;shape=mxgraph.flowchart.annotation_2;align=left;labelPosition=right;pointerEvents=1;" vertex="1" parent="WIyWlLk6GJQsqaUBKTNV-1">
          <mxGeometry x="400" y="150" width="50" height="100" as="geometry" />
        </mxCell>
        <mxCell id="5KUY4B4cqEjA8n7XS62a-5" value="" style="endArrow=none;html=1;rounded=0;exitX=1;exitY=0.5;exitDx=0;exitDy=0;entryX=0;entryY=0.5;entryDx=0;entryDy=0;entryPerimeter=0;" edge="1" parent="WIyWlLk6GJQsqaUBKTNV-1" source="5KUY4B4cqEjA8n7XS62a-1" target="5KUY4B4cqEjA8n7XS62a-4">
          <mxGeometry width="50" height="50" relative="1" as="geometry">
            <mxPoint x="320" y="340" as="sourcePoint" />
            <mxPoint x="370" y="290" as="targetPoint" />
          </mxGeometry>
        </mxCell>
        <mxCell id="5KUY4B4cqEjA8n7XS62a-6" value="Depth - по значению&amp;nbsp;&lt;div&gt;Points, Index - по ссылке&lt;/div&gt;&lt;div&gt;X, Y, Xi, Xj, Yi, Yj - по значению&lt;/div&gt;" style="text;html=1;align=center;verticalAlign=middle;whiteSpace=wrap;rounded=0;" vertex="1" parent="WIyWlLk6GJQsqaUBKTNV-1">
          <mxGeometry x="430" y="185" width="190" height="30" as="geometry" />
        </mxCell>
        <mxCell id="5KUY4B4cqEjA8n7XS62a-10" value="" style="edgeStyle=orthogonalEdgeStyle;rounded=0;orthogonalLoop=1;jettySize=auto;html=1;" edge="1" parent="WIyWlLk6GJQsqaUBKTNV-1" source="5KUY4B4cqEjA8n7XS62a-7" target="5KUY4B4cqEjA8n7XS62a-9">
          <mxGeometry relative="1" as="geometry" />
        </mxCell>
        <mxCell id="5KUY4B4cqEjA8n7XS62a-7" value="Depth &amp;gt; 0" style="rhombus;whiteSpace=wrap;html=1;" vertex="1" parent="WIyWlLk6GJQsqaUBKTNV-1">
          <mxGeometry x="120" y="280" width="240" height="80" as="geometry" />
        </mxCell>
        <mxCell id="5KUY4B4cqEjA8n7XS62a-15" value="" style="edgeStyle=orthogonalEdgeStyle;rounded=0;orthogonalLoop=1;jettySize=auto;html=1;" edge="1" parent="WIyWlLk6GJQsqaUBKTNV-1" source="5KUY4B4cqEjA8n7XS62a-9" target="5KUY4B4cqEjA8n7XS62a-12">
          <mxGeometry relative="1" as="geometry" />
        </mxCell>
        <mxCell id="5KUY4B4cqEjA8n7XS62a-9" value="HilbertA(Depth - 1, Points, Index, X, Y, Yi div 2, Yj div 2, Xi div 2, Xj div 2)" style="shape=process;whiteSpace=wrap;html=1;backgroundOutline=1;" vertex="1" parent="WIyWlLk6GJQsqaUBKTNV-1">
          <mxGeometry x="120" y="400" width="240" height="80" as="geometry" />
        </mxCell>
        <mxCell id="5KUY4B4cqEjA8n7XS62a-16" value="" style="edgeStyle=orthogonalEdgeStyle;rounded=0;orthogonalLoop=1;jettySize=auto;html=1;" edge="1" parent="WIyWlLk6GJQsqaUBKTNV-1" source="5KUY4B4cqEjA8n7XS62a-12" target="5KUY4B4cqEjA8n7XS62a-13">
          <mxGeometry relative="1" as="geometry" />
        </mxCell>
        <mxCell id="5KUY4B4cqEjA8n7XS62a-12" value="HilbertA(Depth - 1, Points, Index, X + Xi div 2, Y + Xj div 2, Xi div 2, Xj div 2, Yi div 2, Yj div 2)" style="shape=process;whiteSpace=wrap;html=1;backgroundOutline=1;" vertex="1" parent="WIyWlLk6GJQsqaUBKTNV-1">
          <mxGeometry x="120" y="520" width="240" height="80" as="geometry" />
        </mxCell>
        <mxCell id="5KUY4B4cqEjA8n7XS62a-17" value="" style="edgeStyle=orthogonalEdgeStyle;rounded=0;orthogonalLoop=1;jettySize=auto;html=1;" edge="1" parent="WIyWlLk6GJQsqaUBKTNV-1" source="5KUY4B4cqEjA8n7XS62a-13" target="5KUY4B4cqEjA8n7XS62a-14">
          <mxGeometry relative="1" as="geometry" />
        </mxCell>
        <mxCell id="5KUY4B4cqEjA8n7XS62a-13" value="HilbertA(Depth - 1, Points, Index, X + Xi div 2 + Yi div 2, Y + Xj div 2 + Yj div 2, Xi div 2, Xj div 2, Yi div 2, Yj div 2)" style="shape=process;whiteSpace=wrap;html=1;backgroundOutline=1;" vertex="1" parent="WIyWlLk6GJQsqaUBKTNV-1">
          <mxGeometry x="120" y="640" width="240" height="80" as="geometry" />
        </mxCell>
        <mxCell id="5KUY4B4cqEjA8n7XS62a-25" value="" style="edgeStyle=orthogonalEdgeStyle;rounded=0;orthogonalLoop=1;jettySize=auto;html=1;" edge="1" parent="WIyWlLk6GJQsqaUBKTNV-1" source="5KUY4B4cqEjA8n7XS62a-14" target="5KUY4B4cqEjA8n7XS62a-24">
          <mxGeometry relative="1" as="geometry" />
        </mxCell>
        <mxCell id="5KUY4B4cqEjA8n7XS62a-14" value="HilbertA(Depth - 1, Points, Index, X + Xi div 2 + Yi, Y + Xj div 2 + Yj, -Yi div 2, -Yj div 2, -Xi div 2, -Xj div 2)" style="shape=process;whiteSpace=wrap;html=1;backgroundOutline=1;" vertex="1" parent="WIyWlLk6GJQsqaUBKTNV-1">
          <mxGeometry x="120" y="760" width="240" height="80" as="geometry" />
        </mxCell>
        <mxCell id="5KUY4B4cqEjA8n7XS62a-18" value="Да" style="text;html=1;align=center;verticalAlign=middle;whiteSpace=wrap;rounded=0;" vertex="1" parent="WIyWlLk6GJQsqaUBKTNV-1">
          <mxGeometry x="230" y="360" width="60" height="30" as="geometry" />
        </mxCell>
        <mxCell id="5KUY4B4cqEjA8n7XS62a-19" value="Points[Index].X := X + (Xi + Yi) div 2&lt;div&gt;Points[Index].Y := Y + (Xj + Yj) div 2&lt;/div&gt;" style="rounded=0;whiteSpace=wrap;html=1;" vertex="1" parent="WIyWlLk6GJQsqaUBKTNV-1">
          <mxGeometry x="400" y="400" width="240" height="80" as="geometry" />
        </mxCell>
        <mxCell id="5KUY4B4cqEjA8n7XS62a-20" value="Inc(Index)" style="rounded=0;whiteSpace=wrap;html=1;" vertex="1" parent="WIyWlLk6GJQsqaUBKTNV-1">
          <mxGeometry x="400" y="520" width="240" height="80" as="geometry" />
        </mxCell>
        <mxCell id="5KUY4B4cqEjA8n7XS62a-21" value="" style="endArrow=none;html=1;rounded=0;exitX=1;exitY=0.5;exitDx=0;exitDy=0;" edge="1" parent="WIyWlLk6GJQsqaUBKTNV-1" source="5KUY4B4cqEjA8n7XS62a-7">
          <mxGeometry width="50" height="50" relative="1" as="geometry">
            <mxPoint x="320" y="640" as="sourcePoint" />
            <mxPoint x="520" y="320" as="targetPoint" />
          </mxGeometry>
        </mxCell>
        <mxCell id="5KUY4B4cqEjA8n7XS62a-22" value="" style="endArrow=classic;html=1;rounded=0;" edge="1" parent="WIyWlLk6GJQsqaUBKTNV-1" target="5KUY4B4cqEjA8n7XS62a-19">
          <mxGeometry width="50" height="50" relative="1" as="geometry">
            <mxPoint x="520" y="320" as="sourcePoint" />
            <mxPoint x="370" y="590" as="targetPoint" />
          </mxGeometry>
        </mxCell>
        <mxCell id="5KUY4B4cqEjA8n7XS62a-23" value="" style="endArrow=classic;html=1;rounded=0;exitX=0.5;exitY=1;exitDx=0;exitDy=0;" edge="1" parent="WIyWlLk6GJQsqaUBKTNV-1" source="5KUY4B4cqEjA8n7XS62a-19" target="5KUY4B4cqEjA8n7XS62a-20">
          <mxGeometry width="50" height="50" relative="1" as="geometry">
            <mxPoint x="320" y="640" as="sourcePoint" />
            <mxPoint x="370" y="590" as="targetPoint" />
          </mxGeometry>
        </mxCell>
        <mxCell id="5KUY4B4cqEjA8n7XS62a-24" value="&lt;div&gt;HilbertA&lt;/div&gt;Конец" style="strokeWidth=2;html=1;shape=mxgraph.flowchart.terminator;whiteSpace=wrap;" vertex="1" parent="WIyWlLk6GJQsqaUBKTNV-1">
          <mxGeometry x="120" y="880" width="240" height="80" as="geometry" />
        </mxCell>
        <mxCell id="5KUY4B4cqEjA8n7XS62a-26" value="" style="endArrow=none;html=1;rounded=0;exitX=0.5;exitY=1;exitDx=0;exitDy=0;" edge="1" parent="WIyWlLk6GJQsqaUBKTNV-1" source="5KUY4B4cqEjA8n7XS62a-20">
          <mxGeometry width="50" height="50" relative="1" as="geometry">
            <mxPoint x="320" y="850" as="sourcePoint" />
            <mxPoint x="520" y="860" as="targetPoint" />
          </mxGeometry>
        </mxCell>
        <mxCell id="5KUY4B4cqEjA8n7XS62a-27" value="" style="endArrow=classic;html=1;rounded=0;" edge="1" parent="WIyWlLk6GJQsqaUBKTNV-1">
          <mxGeometry width="50" height="50" relative="1" as="geometry">
            <mxPoint x="520" y="860" as="sourcePoint" />
            <mxPoint x="240" y="860" as="targetPoint" />
          </mxGeometry>
        </mxCell>
      </root>
    </mxGraphModel>
  </diagram>
</mxfile>
